<?xml version="1.0" encoding="UTF-8" standalone="no"?>
<!DOCTYPE svg PUBLIC "-//W3C//DTD SVG 1.1//EN" "http://www.w3.org/Graphics/SVG/1.1/DTD/svg11.dtd">
<svg xmlns="http://www.w3.org/2000/svg" version="1.1" viewBox="0.00 0.00 90.00 90.00">
<path fill="#f5c26a" d="
  M 90.00 67.56
  L 90.00 71.68
  Q 88.30 76.50 83.00 76.51
  Q 44.87 76.52 6.75 76.54
  Q 1.37 76.54 0.00 71.35
  L 0.00 67.50
  L 6.18 67.51
  Q 6.71 67.51 6.58 67.00
  C 6.34 66.12 6.01 65.24 6.01 64.32
  Q 5.99 42.16 6.00 20.00
  C 6.00 14.91 9.35 13.53 14.02 13.53
  Q 45.89 13.53 77.75 13.52
  C 82.80 13.52 83.99 17.25 83.99 21.78
  Q 84.01 42.96 83.99 64.15
  C 83.99 65.11 83.67 65.98 83.44 66.97
  Q 83.31 67.54 83.90 67.54
  L 90.00 67.56
  Z
  M 54.51 64.53
  L 77.48 64.53
  Q 78.00 64.53 78.00 64.02
  L 78.00 20.00
  Q 78.00 19.51 77.50 19.51
  L 12.50 19.51
  Q 12.00 19.51 12.00 20.00
  L 12.00 64.01
  Q 12.00 64.52 12.51 64.52
  L 38.28 64.55
  Q 38.92 64.56 39.11 65.16
  C 39.60 66.68 40.49 67.23 42.14 67.35
  C 46.39 67.66 53.11 68.61 53.92 65.00
  Q 54.03 64.53 54.51 64.53
  Z"
/>
<path fill="#f5c26a" d="
  M 38.58 39.81
  L 29.24 51.47
  A 2.80 2.80 0.0 0 1 25.07 51.69
  L 24.58 51.20
  A 2.41 2.41 0.0 0 1 24.41 47.99
  L 36.55 32.79
  A 3.13 3.13 0.0 0 1 41.45 32.79
  L 51.03 44.76
  A 0.34 0.33 47.7 0 0 51.53 44.79
  L 64.23 32.10
  A 2.46 2.44 -46.2 0 1 67.61 32.02
  L 68.12 32.48
  A 2.82 2.81 -46.2 0 1 68.20 36.55
  L 53.22 51.47
  A 3.16 3.14 48.2 0 1 48.54 51.20
  L 39.44 39.81
  Q 39.01 39.27 38.58 39.81
  Z"
/>
</svg>
