<?xml version="1.0" encoding="UTF-8" standalone="no"?>
<!DOCTYPE svg PUBLIC "-//W3C//DTD SVG 1.1//EN" "http://www.w3.org/Graphics/SVG/1.1/DTD/svg11.dtd">
<svg xmlns="http://www.w3.org/2000/svg" version="1.1" viewBox="0.00 0.00 52.00 52.00">
<path fill="#f5c26a" d="
  M 21.19 30.02
  L 16.84 29.94
  A 0.84 0.84 0.0 0 1 16.02 29.11
  L 16.00 26.86
  A 0.84 0.84 0.0 0 1 16.84 26.01
  L 31.16 26.00
  A 0.84 0.84 0.0 0 1 32.00 26.85
  L 31.99 29.17
  A 0.84 0.84 0.0 0 1 31.13 30.00
  L 26.86 29.92
  A 0.84 0.84 0.0 0 0 26.00 30.76
  L 25.98 45.16
  A 0.84 0.84 0.0 0 0 26.82 46.00
  L 45.16 46.00
  A 0.84 0.84 0.0 0 0 46.00 45.16
  L 45.99 30.85
  A 0.84 0.84 0.0 0 0 45.17 30.01
  L 40.82 29.88
  A 0.84 0.84 0.0 0 1 40.01 29.05
  L 39.99 26.85
  A 0.84 0.84 0.0 0 1 40.83 26.01
  L 45.16 25.99
  A 0.84 0.84 0.0 0 0 46.00 25.15
  L 46.01 6.83
  A 0.84 0.84 0.0 0 0 45.17 5.99
  L 32.85 6.00
  A 0.84 0.84 0.0 0 1 32.01 5.16
  L 32.00 2.83
  A 0.84 0.84 0.0 0 1 32.84 1.99
  L 49.15 2.05
  A 0.84 0.84 0.0 0 1 49.99 2.89
  L 50.00 49.14
  A 0.84 0.84 0.0 0 1 49.16 49.98
  L 2.85 49.99
  A 0.84 0.84 0.0 0 1 2.01 49.15
  L 2.03 2.85
  A 0.84 0.84 0.0 0 1 2.87 2.01
  L 20.40 2.00
  A 0.84 0.84 0.0 0 1 20.90 2.17
  L 28.49 7.88
  A 0.84 0.84 0.0 0 1 28.66 9.05
  L 27.30 10.89
  A 0.84 0.84 0.0 0 1 26.12 11.06
  L 19.63 6.17
  A 0.84 0.84 0.0 0 0 19.13 6.00
  L 6.84 5.96
  A 0.84 0.84 0.0 0 0 6.00 6.80
  L 5.99 45.17
  A 0.84 0.84 0.0 0 0 6.83 46.01
  L 21.16 46.00
  A 0.84 0.84 0.0 0 0 22.00 45.16
  L 22.01 30.86
  A 0.84 0.84 0.0 0 0 21.19 30.02
  Z"
/>
</svg>
