<?xml version="1.0" encoding="UTF-8" standalone="no"?>
<!DOCTYPE svg PUBLIC "-//W3C//DTD SVG 1.1//EN" "http://www.w3.org/Graphics/SVG/1.1/DTD/svg11.dtd">
<svg xmlns="http://www.w3.org/2000/svg" version="1.1" viewBox="0.00 0.00 100.00 100.00">
<path fill="#f5c26a" d="
  M 83.82 9.91
  C 86.41 11.00 92.25 14.83 91.72 18.04
  C 90.86 23.20 77.24 26.82 72.98 27.66
  Q 50.33 32.12 27.64 27.78
  C 22.05 26.71 11.73 24.04 8.53 18.96
  C 6.70 16.04 12.68 11.61 14.81 10.57
  Q 19.34 8.35 24.28 7.17
  C 43.05 2.68 65.73 2.28 83.82 9.91
  Z"
/>
<path fill="#f5c26a" d="
  M 80.11 36.11
  L 79.66 36.11
  A 1.64 1.63 0.3 0 0 78.00 37.74
  L 78.00 60.50
  Q 78.00 61.02 77.50 61.15
  C 73.88 62.15 71.46 61.44 67.32 60.44
  C 66.31 60.19 65.54 60.28 64.53 60.45
  Q 64.01 60.54 64.01 60.01
  L 64.00 44.02
  Q 64.00 42.11 62.09 42.10
  L 61.66 42.10
  A 1.65 1.64 0.2 0 0 60.00 43.74
  L 60.00 61.54
  A 1.83 1.79 66.2 0 1 59.55 62.74
  C 53.33 69.73 46.05 69.98 40.27 62.33
  Q 40.00 61.97 40.00 61.51
  L 40.00 44.02
  Q 40.00 42.13 38.11 42.10
  L 37.67 42.10
  A 1.65 1.64 0.3 0 0 36.00 43.74
  L 36.00 59.97
  Q 36.00 60.35 35.62 60.34
  C 30.77 60.20 27.79 62.43 22.46 61.13
  A 0.66 0.65 -83.3 0 1 21.96 60.49
  L 21.99 38.20
  Q 21.99 36.18 19.97 36.11
  L 19.69 36.11
  A 1.63 1.63 0.0 0 0 18.00 37.74
  L 18.00 58.75
  A 0.45 0.44 24.3 0 1 17.22 59.04
  Q 13.83 55.26 9.03 53.66
  A 1.51 1.50 -80.9 0 1 8.00 52.23
  L 8.00 24.79
  Q 8.00 24.30 8.42 24.56
  Q 14.65 28.52 20.75 30.22
  C 42.35 36.27 71.61 36.30 91.46 24.68
  Q 92.00 24.37 92.00 25.00
  L 92.00 52.24
  A 1.51 1.50 -9.1 0 1 90.96 53.67
  Q 86.38 55.16 83.12 58.71
  Q 82.00 59.93 82.00 58.27
  L 82.00 38.02
  Q 82.00 36.13 80.11 36.11
  Z"
/>
<path fill="#06ff00" d="
  M 68.36 81.00
  L 85.82 63.65
  A 0.32 0.32 0.0 0 1 86.28 63.66
  L 92.03 69.40
  A 0.32 0.32 0.0 0 1 92.03 69.86
  L 68.38 93.37
  A 0.32 0.32 0.0 0 1 67.92 93.36
  L 52.55 77.99
  A 0.32 0.32 0.0 0 1 52.55 77.53
  L 58.29 71.82
  A 0.32 0.32 0.0 0 1 58.75 71.82
  L 67.90 80.99
  A 0.32 0.32 0.0 0 0 68.36 81.00
  Z"
/>
<path fill="#f5c26a" d="
  M 44.25 70.94
  Q 48.75 72.66 53.49 71.64
  Q 54.26 71.48 53.72 72.06
  Q 52.45 73.43 50.15 75.63
  C 47.22 78.43 51.86 81.33 53.42 83.31
  A 0.37 0.36 -21.0 0 1 53.15 83.90
  C 47.92 84.24 43.99 84.86 43.99 78.12
  Q 43.99 74.59 44.02 71.10
  A 0.17 0.17 0.0 0 1 44.25 70.94
  Z"
/>
<path fill="#f5c26a" d="
  M 36.99 94.65
  C 32.28 93.68 20.66 89.57 24.80 82.61
  C 27.30 78.40 34.72 76.23 39.49 75.63
  Q 39.97 75.57 39.98 76.06
  C 40.03 78.02 39.81 80.22 40.27 81.95
  C 42.13 89.02 51.37 89.34 56.56 86.68
  Q 56.82 86.54 57.03 86.75
  L 64.24 94.07
  A 0.19 0.18 -29.3 0 1 64.15 94.38
  Q 50.52 97.43 36.99 94.65
  Z"
/>
</svg>
