<?xml version="1.0" encoding="UTF-8" standalone="no"?>
<!DOCTYPE svg PUBLIC "-//W3C//DTD SVG 1.1//EN" "http://www.w3.org/Graphics/SVG/1.1/DTD/svg11.dtd">
<svg xmlns="http://www.w3.org/2000/svg" version="1.1" viewBox="0.00 0.00 90.00 90.00">
<path fill="#f5c26a" d="
  M 12.25 17.51
  C 12.40 14.67 14.27 12.34 17.26 12.21
  Q 23.10 11.96 29.02 11.97
  A 0.99 0.99 0.0 0 1 30.00 12.96
  L 30.00 29.04
  A 1.04 1.03 -0.0 0 1 28.96 30.07
  L 13.02 30.02
  A 1.04 1.04 0.0 0 1 11.99 28.99
  Q 11.95 23.25 12.25 17.51
  Z"
/>
<rect fill="#f5c26a" x="-9.00" y="-9.02" transform="translate(45.03,21.04) rotate(0.1)" width="18.00" height="18.04" rx="0.94"/>
<path fill="#f5c26a" d="
  M 72.00 12.07
  C 76.63 12.14 77.94 15.58 77.99 19.64
  Q 78.04 24.53 77.98 29.26
  A 0.79 0.78 -89.3 0 1 77.19 30.04
  L 60.60 29.94
  Q 60.02 29.93 60.02 29.35
  L 60.01 12.98
  A 0.99 0.98 -0.3 0 1 61.00 11.99
  Q 66.52 11.99 72.00 12.07
  Z"
/>
<rect fill="#f5c26a" x="-9.00" y="-8.98" transform="translate(21.01,45.07) rotate(0.1)" width="18.00" height="17.96" rx="0.87"/>
<rect fill="#f5c26a" x="-9.04" y="-8.97" transform="translate(45.07,45.08) rotate(0.3)" width="18.08" height="17.94" rx="0.64"/>
<path fill="#f5c26a" d="
  M 90.00 67.40
  L 90.00 70.99
  Q 87.14 87.27 70.89 90.00
  L 67.28 90.00
  Q 55.76 88.44 50.33 78.47
  A 0.90 0.89 -13.8 0 0 49.54 78.00
  L 36.75 77.99
  A 0.74 0.74 0.0 0 1 36.01 77.25
  L 36.00 60.98
  A 1.00 1.00 0.0 0 1 37.01 59.98
  L 49.47 60.02
  Q 50.05 60.02 50.32 59.51
  Q 53.47 53.74 59.22 50.55
  A 1.53 1.52 75.7 0 0 59.99 49.24
  L 60.08 36.97
  A 0.95 0.95 0.0 0 1 61.03 36.03
  L 76.77 36.04
  Q 78.00 36.05 78.00 37.27
  L 78.00 49.55
  Q 78.00 50.08 78.46 50.33
  Q 88.52 55.79 90.00 67.40
  Z
  M 84.00 68.99
  A 15.00 15.00 0.0 0 0 69.00 53.99
  A 15.00 15.00 0.0 0 0 54.00 68.99
  A 15.00 15.00 0.0 0 0 69.00 83.99
  A 15.00 15.00 0.0 0 0 84.00 68.99
  Z"
/>
<path fill="#f5c26a" d="
  M 66.00 67.33
  L 66.01 59.61
  A 2.62 2.62 0.0 0 1 68.89 57.01
  L 69.80 57.10
  A 2.42 2.42 0.0 0 1 71.98 59.50
  L 72.01 69.04
  A 2.76 2.75 -22.4 0 1 71.19 71.00
  L 66.12 76.03
  A 2.34 2.33 -46.6 0 1 62.92 76.12
  L 62.37 75.64
  A 2.82 2.81 43.5 0 1 62.26 71.53
  L 65.62 68.23
  Q 66.00 67.86 66.00 67.33
  Z"
/>
<path fill="#f5c26a" d="
  M 29.94 61.25
  L 30.00 77.27
  A 0.72 0.72 0.0 0 1 29.29 77.99
  Q 24.98 78.01 20.59 78.00
  C 15.95 77.99 12.03 77.01 12.00 71.75
  Q 11.97 66.12 12.02 60.75
  A 0.65 0.65 0.0 0 1 12.68 60.11
  Q 20.25 60.18 27.75 60.06
  Q 28.93 60.05 29.24 60.24
  Q 29.94 60.68 29.94 61.25
  Z"
/>
</svg>
