<?xml version="1.0" encoding="UTF-8" standalone="no"?>
<!DOCTYPE svg PUBLIC "-//W3C//DTD SVG 1.1//EN" "http://www.w3.org/Graphics/SVG/1.1/DTD/svg11.dtd">
<svg xmlns="http://www.w3.org/2000/svg" version="1.1" viewBox="0.00 0.00 90.00 90.00">
<path fill="#f5c26a" d="
  M 14.95 18.74
  L 18.64 13.21
  Q 20.27 10.76 22.63 12.51
  L 23.16 12.91
  A 2.39 2.38 -55.7 0 1 23.76 16.09
  Q 20.75 20.89 17.63 25.38
  C 14.84 29.38 10.87 24.56 9.18 22.00
  A 1.45 1.38 -60.3 0 1 8.96 21.11
  C 9.22 18.19 11.78 17.11 14.06 18.89
  Q 14.58 19.29 14.95 18.74
  Z"
/>
<rect fill="#f5c26a" x="33.02" y="18.01" width="47.96" height="5.98" rx="2.94"/>
<path fill="#f5c26a" d="
  M 14.95 42.74
  L 18.64 37.21
  Q 20.27 34.76 22.63 36.51
  L 23.16 36.91
  A 2.39 2.38 -55.7 0 1 23.76 40.09
  Q 20.75 44.89 17.63 49.38
  C 14.84 53.38 10.87 48.56 9.18 46.00
  A 1.45 1.38 -60.3 0 1 8.96 45.11
  C 9.22 42.19 11.78 41.11 14.07 42.89
  Q 14.58 43.29 14.95 42.74
  Z"
/>
<rect fill="#f5c26a" x="33.02" y="42.01" width="47.96" height="5.98" rx="2.94"/>
<path fill="#06ff00" d="
  M 68.98 65.52
  C 69.02 63.70 68.51 60.12 70.33 59.04
  C 71.72 58.21 73.55 58.47 74.44 59.86
  C 75.29 61.20 75.00 63.71 74.99 65.47
  Q 74.99 66.00 75.51 66.00
  C 77.17 66.00 80.47 65.59 81.63 66.93
  C 82.77 68.22 82.74 70.25 81.33 71.29
  C 79.91 72.34 77.36 72.01 75.52 71.98
  Q 75.00 71.97 75.00 72.49
  L 75.00 76.71
  A 2.75 2.75 0.0 0 1 72.04 79.44
  L 71.30 79.38
  A 2.44 2.44 0.0 0 1 69.06 76.99
  L 68.98 72.49
  Q 68.97 72.01 68.49 72.01
  L 64.19 71.98
  A 2.66 2.66 0.0 0 1 61.55 69.19
  L 61.60 68.32
  A 2.37 2.37 0.0 0 1 63.92 66.07
  L 68.53 65.97
  Q 68.98 65.97 68.98 65.52
  Z"
/>
<path fill="#f5c26a" d="
  M 26.94 69.01
  A 8.94 8.94 0.0 0 1 18.00 77.95
  A 8.94 8.94 0.0 0 1 9.06 69.01
  A 8.94 8.94 0.0 0 1 18.00 60.07
  A 8.94 8.94 0.0 0 1 26.94 69.01
  Z
  M 20.99 69.02
  A 3.00 3.00 0.0 0 0 17.99 66.02
  A 3.00 3.00 0.0 0 0 14.99 69.02
  A 3.00 3.00 0.0 0 0 17.99 72.02
  A 3.00 3.00 0.0 0 0 20.99 69.02
  Z"
/>
<path fill="#f5c26a" d="
  M 58.80 71.79
  A 0.22 0.22 0.0 0 1 58.58 72.01
  L 36.17 72.01
  A 3.17 2.94 0.0 0 1 33.00 69.07
  L 33.00 68.93
  A 3.17 2.94 -0.0 0 1 36.17 65.99
  L 58.58 65.99
  A 0.22 0.22 0.0 0 1 58.80 66.21
  L 58.80 71.79
  Z"
/>
</svg>
